<mxfile host="app.diagrams.net" modified="2021-04-25T06:25:50.795Z" agent="5.0 (Windows NT 10.0; Win64; x64) AppleWebKit/537.36 (KHTML, like Gecko) Chrome/89.0.4389.128 Safari/537.36" etag="zYVjSYsTZnu1M-JyA3lL" version="14.6.0" type="github">
  <diagram id="5l0Z7yfl8ByQtcLtXI0_" name="Page-1">
    <mxGraphModel dx="2370" dy="1270" grid="1" gridSize="10" guides="1" tooltips="1" connect="1" arrows="1" fold="1" page="1" pageScale="1" pageWidth="700" pageHeight="1000" math="0" shadow="0">
      <root>
        <mxCell id="0" />
        <mxCell id="1" parent="0" />
        <mxCell id="XmLIVMyjwb1xh4FuUnke-17" value="Database&lt;br&gt;" style="shape=umlActor;verticalLabelPosition=bottom;verticalAlign=top;html=1;outlineConnect=0;" parent="1" vertex="1">
          <mxGeometry x="1150" y="430" width="50" height="97.5" as="geometry" />
        </mxCell>
        <mxCell id="XmLIVMyjwb1xh4FuUnke-107" style="edgeStyle=orthogonalEdgeStyle;rounded=0;orthogonalLoop=1;jettySize=auto;html=1;exitX=0.5;exitY=0.5;exitDx=0;exitDy=0;exitPerimeter=0;entryX=0;entryY=0.5;entryDx=0;entryDy=0;fontSize=14;endArrow=none;endFill=0;" parent="1" source="XmLIVMyjwb1xh4FuUnke-20" target="XmLIVMyjwb1xh4FuUnke-69" edge="1">
          <mxGeometry relative="1" as="geometry" />
        </mxCell>
        <mxCell id="XmLIVMyjwb1xh4FuUnke-115" style="edgeStyle=elbowEdgeStyle;rounded=0;orthogonalLoop=1;jettySize=auto;html=1;exitX=0.75;exitY=0.1;exitDx=0;exitDy=0;exitPerimeter=0;entryX=0.478;entryY=1;entryDx=0;entryDy=0;entryPerimeter=0;fontSize=14;endArrow=none;endFill=0;elbow=vertical;" parent="1" source="XmLIVMyjwb1xh4FuUnke-20" target="XmLIVMyjwb1xh4FuUnke-40" edge="1">
          <mxGeometry relative="1" as="geometry">
            <Array as="points">
              <mxPoint x="260" y="390" />
            </Array>
          </mxGeometry>
        </mxCell>
        <mxCell id="XmLIVMyjwb1xh4FuUnke-20" value="Manager" style="shape=umlActor;verticalLabelPosition=bottom;verticalAlign=top;html=1;outlineConnect=0;" parent="1" vertex="1">
          <mxGeometry x="100" y="380" width="50" height="100" as="geometry" />
        </mxCell>
        <mxCell id="XmLIVMyjwb1xh4FuUnke-99" style="edgeStyle=orthogonalEdgeStyle;rounded=0;orthogonalLoop=1;jettySize=auto;html=1;exitX=1;exitY=0.5;exitDx=0;exitDy=0;entryX=0;entryY=0.25;entryDx=0;entryDy=0;fontSize=14;endArrow=none;endFill=0;" parent="1" source="XmLIVMyjwb1xh4FuUnke-41" target="XmLIVMyjwb1xh4FuUnke-49" edge="1">
          <mxGeometry relative="1" as="geometry" />
        </mxCell>
        <mxCell id="XmLIVMyjwb1xh4FuUnke-41" value="《entity》&#xa;Archiver" style="swimlane;fontStyle=0;childLayout=stackLayout;horizontal=1;startSize=79;horizontalStack=0;resizeParent=1;resizeParentMax=0;resizeLast=0;collapsible=1;marginBottom=0;fontSize=18;labelBorderColor=none;" parent="1" vertex="1">
          <mxGeometry x="930" y="94.10000000000002" width="180" height="110" as="geometry" />
        </mxCell>
        <mxCell id="XmLIVMyjwb1xh4FuUnke-42" value="current tracking number" style="text;strokeColor=none;fillColor=none;align=left;verticalAlign=top;spacingLeft=4;spacingRight=4;overflow=hidden;rotatable=0;points=[[0,0.5],[1,0.5]];portConstraint=eastwest;fontSize=14;" parent="XmLIVMyjwb1xh4FuUnke-41" vertex="1">
          <mxGeometry y="79" width="180" height="31" as="geometry" />
        </mxCell>
        <mxCell id="XmLIVMyjwb1xh4FuUnke-57" value="" style="group" parent="1" vertex="1" connectable="0">
          <mxGeometry x="580" y="70" width="200" height="150" as="geometry" />
        </mxCell>
        <mxCell id="XmLIVMyjwb1xh4FuUnke-53" value="《control》&#xa;Controller" style="swimlane;fontStyle=0;childLayout=stackLayout;horizontal=1;startSize=79;horizontalStack=0;resizeParent=1;resizeParentMax=0;resizeLast=0;collapsible=1;marginBottom=0;fontSize=18;labelBorderColor=none;" parent="XmLIVMyjwb1xh4FuUnke-57" vertex="1">
          <mxGeometry x="20" y="18.2" width="180" height="121.8" as="geometry" />
        </mxCell>
        <mxCell id="XmLIVMyjwb1xh4FuUnke-56" value="" style="verticalLabelPosition=bottom;verticalAlign=top;html=1;shape=mxgraph.basic.smiley;fontSize=14;strokeWidth=2;fillColor=#ffffff;" parent="XmLIVMyjwb1xh4FuUnke-57" vertex="1">
          <mxGeometry width="50" height="50" as="geometry" />
        </mxCell>
        <mxCell id="XmLIVMyjwb1xh4FuUnke-58" value="" style="group" parent="1" vertex="1" connectable="0">
          <mxGeometry x="590" y="410" width="200" height="150" as="geometry" />
        </mxCell>
        <mxCell id="XmLIVMyjwb1xh4FuUnke-59" value="《entity》&#xa;Page Maker" style="swimlane;fontStyle=0;childLayout=stackLayout;horizontal=1;startSize=79;horizontalStack=0;resizeParent=1;resizeParentMax=0;resizeLast=0;collapsible=1;marginBottom=0;fontSize=18;labelBorderColor=none;" parent="XmLIVMyjwb1xh4FuUnke-58" vertex="1">
          <mxGeometry x="20" y="21" width="180" height="119" as="geometry" />
        </mxCell>
        <mxCell id="XmLIVMyjwb1xh4FuUnke-60" value="" style="verticalLabelPosition=bottom;verticalAlign=top;html=1;shape=mxgraph.basic.smiley;fontSize=14;strokeWidth=2;fillColor=#ffffff;" parent="XmLIVMyjwb1xh4FuUnke-58" vertex="1">
          <mxGeometry width="50" height="50" as="geometry" />
        </mxCell>
        <mxCell id="XmLIVMyjwb1xh4FuUnke-63" value="" style="group" parent="1" vertex="1" connectable="0">
          <mxGeometry x="1210" y="81.5" width="194" height="189" as="geometry" />
        </mxCell>
        <mxCell id="XmLIVMyjwb1xh4FuUnke-49" value="《boundary》&#xa;Issue Request" style="swimlane;fontStyle=0;childLayout=stackLayout;horizontal=1;startSize=79;horizontalStack=0;resizeParent=1;resizeParentMax=0;resizeLast=0;collapsible=1;marginBottom=0;fontSize=18;" parent="XmLIVMyjwb1xh4FuUnke-63" vertex="1">
          <mxGeometry x="14" y="17" width="180" height="203" as="geometry" />
        </mxCell>
        <mxCell id="XmLIVMyjwb1xh4FuUnke-50" value="guest&#39;s id" style="text;strokeColor=none;fillColor=none;align=left;verticalAlign=top;spacingLeft=4;spacingRight=4;overflow=hidden;rotatable=0;points=[[0,0.5],[1,0.5]];portConstraint=eastwest;fontSize=14;" parent="XmLIVMyjwb1xh4FuUnke-49" vertex="1">
          <mxGeometry y="79" width="180" height="31" as="geometry" />
        </mxCell>
        <mxCell id="XmLIVMyjwb1xh4FuUnke-51" value="array of book&#39;s id" style="text;strokeColor=none;fillColor=none;align=left;verticalAlign=top;spacingLeft=4;spacingRight=4;overflow=hidden;rotatable=0;points=[[0,0.5],[1,0.5]];portConstraint=eastwest;fontSize=14;" parent="XmLIVMyjwb1xh4FuUnke-49" vertex="1">
          <mxGeometry y="110" width="180" height="31" as="geometry" />
        </mxCell>
        <mxCell id="XmLIVMyjwb1xh4FuUnke-52" value="issue date" style="text;strokeColor=none;fillColor=none;align=left;verticalAlign=top;spacingLeft=4;spacingRight=4;overflow=hidden;rotatable=0;points=[[0,0.5],[1,0.5]];portConstraint=eastwest;fontSize=14;" parent="XmLIVMyjwb1xh4FuUnke-49" vertex="1">
          <mxGeometry y="141" width="180" height="31" as="geometry" />
        </mxCell>
        <mxCell id="XmLIVMyjwb1xh4FuUnke-74" value="period" style="text;strokeColor=none;fillColor=none;align=left;verticalAlign=top;spacingLeft=4;spacingRight=4;overflow=hidden;rotatable=0;points=[[0,0.5],[1,0.5]];portConstraint=eastwest;fontSize=14;" parent="XmLIVMyjwb1xh4FuUnke-49" vertex="1">
          <mxGeometry y="172" width="180" height="31" as="geometry" />
        </mxCell>
        <mxCell id="XmLIVMyjwb1xh4FuUnke-62" value="" style="shape=note;whiteSpace=wrap;html=1;backgroundOutline=1;darkOpacity=0.05;fontSize=14;strokeWidth=2;fillColor=#ffffff;size=15;" parent="XmLIVMyjwb1xh4FuUnke-63" vertex="1">
          <mxGeometry width="40" height="50" as="geometry" />
        </mxCell>
        <mxCell id="XmLIVMyjwb1xh4FuUnke-66" value="" style="group" parent="1" vertex="1" connectable="0">
          <mxGeometry x="890" y="272" width="240" height="150" as="geometry" />
        </mxCell>
        <mxCell id="XmLIVMyjwb1xh4FuUnke-67" value="《boundary》&#xa;Database Connection" style="swimlane;fontStyle=0;childLayout=stackLayout;horizontal=1;startSize=79;horizontalStack=0;resizeParent=1;resizeParentMax=0;resizeLast=0;collapsible=1;marginBottom=0;fontSize=18;labelBorderColor=none;" parent="XmLIVMyjwb1xh4FuUnke-66" vertex="1">
          <mxGeometry x="20" y="20" width="220" height="121.8" as="geometry" />
        </mxCell>
        <mxCell id="XmLIVMyjwb1xh4FuUnke-68" value="" style="verticalLabelPosition=bottom;verticalAlign=top;html=1;shape=mxgraph.basic.smiley;fontSize=14;strokeWidth=2;fillColor=#ffffff;" parent="XmLIVMyjwb1xh4FuUnke-66" vertex="1">
          <mxGeometry width="50" height="50" as="geometry" />
        </mxCell>
        <mxCell id="XmLIVMyjwb1xh4FuUnke-75" value="" style="group" parent="1" vertex="1" connectable="0">
          <mxGeometry x="270" y="80" width="196" height="192" as="geometry" />
        </mxCell>
        <mxCell id="XmLIVMyjwb1xh4FuUnke-30" value="《boundary》&#xa;Search Request" style="swimlane;fontStyle=0;childLayout=stackLayout;horizontal=1;startSize=79;horizontalStack=0;resizeParent=1;resizeParentMax=0;resizeLast=0;collapsible=1;marginBottom=0;fontSize=18;" parent="XmLIVMyjwb1xh4FuUnke-75" vertex="1">
          <mxGeometry x="16" y="20" width="180" height="203" as="geometry" />
        </mxCell>
        <mxCell id="XmLIVMyjwb1xh4FuUnke-31" value="user&#39;s authorization&#xa;" style="text;strokeColor=none;fillColor=none;align=left;verticalAlign=top;spacingLeft=4;spacingRight=4;overflow=hidden;rotatable=0;points=[[0,0.5],[1,0.5]];portConstraint=eastwest;fontSize=14;" parent="XmLIVMyjwb1xh4FuUnke-30" vertex="1">
          <mxGeometry y="79" width="180" height="31" as="geometry" />
        </mxCell>
        <mxCell id="XmLIVMyjwb1xh4FuUnke-39" value="searching user criteria" style="text;strokeColor=none;fillColor=none;align=left;verticalAlign=top;spacingLeft=4;spacingRight=4;overflow=hidden;rotatable=0;points=[[0,0.5],[1,0.5]];portConstraint=eastwest;fontSize=14;" parent="XmLIVMyjwb1xh4FuUnke-30" vertex="1">
          <mxGeometry y="110" width="180" height="31" as="geometry" />
        </mxCell>
        <mxCell id="XmLIVMyjwb1xh4FuUnke-104" value="searching book criteria" style="text;strokeColor=none;fillColor=none;align=left;verticalAlign=top;spacingLeft=4;spacingRight=4;overflow=hidden;rotatable=0;points=[[0,0.5],[1,0.5]];portConstraint=eastwest;fontSize=14;" parent="XmLIVMyjwb1xh4FuUnke-30" vertex="1">
          <mxGeometry y="141" width="180" height="31" as="geometry" />
        </mxCell>
        <mxCell id="XmLIVMyjwb1xh4FuUnke-40" value="searching book criteria" style="text;strokeColor=none;fillColor=none;align=left;verticalAlign=top;spacingLeft=4;spacingRight=4;overflow=hidden;rotatable=0;points=[[0,0.5],[1,0.5]];portConstraint=eastwest;fontSize=14;" parent="XmLIVMyjwb1xh4FuUnke-30" vertex="1">
          <mxGeometry y="172" width="180" height="31" as="geometry" />
        </mxCell>
        <mxCell id="XmLIVMyjwb1xh4FuUnke-64" value="" style="shape=note;whiteSpace=wrap;html=1;backgroundOutline=1;darkOpacity=0.05;fontSize=14;strokeWidth=2;fillColor=#ffffff;size=15;" parent="XmLIVMyjwb1xh4FuUnke-75" vertex="1">
          <mxGeometry width="40" height="50" as="geometry" />
        </mxCell>
        <mxCell id="XmLIVMyjwb1xh4FuUnke-76" value="" style="group" parent="1" vertex="1" connectable="0">
          <mxGeometry x="272" y="420" width="194" height="125" as="geometry" />
        </mxCell>
        <mxCell id="XmLIVMyjwb1xh4FuUnke-69" value="《boundary》&#xa;Interface Page" style="swimlane;fontStyle=0;childLayout=stackLayout;horizontal=1;startSize=79;horizontalStack=0;resizeParent=1;resizeParentMax=0;resizeLast=0;collapsible=1;marginBottom=0;fontSize=18;" parent="XmLIVMyjwb1xh4FuUnke-76" vertex="1">
          <mxGeometry x="14" y="15" width="180" height="110" as="geometry" />
        </mxCell>
        <mxCell id="XmLIVMyjwb1xh4FuUnke-73" value="" style="shape=note;whiteSpace=wrap;html=1;backgroundOutline=1;darkOpacity=0.05;fontSize=14;strokeWidth=2;fillColor=#ffffff;size=15;" parent="XmLIVMyjwb1xh4FuUnke-76" vertex="1">
          <mxGeometry width="40" height="50" as="geometry" />
        </mxCell>
        <mxCell id="XmLIVMyjwb1xh4FuUnke-94" style="rounded=0;orthogonalLoop=1;jettySize=auto;html=1;exitX=0.5;exitY=1;exitDx=0;exitDy=0;fontSize=14;endArrow=none;endFill=0;entryX=0.5;entryY=0;entryDx=0;entryDy=0;edgeStyle=elbowEdgeStyle;" parent="1" source="XmLIVMyjwb1xh4FuUnke-53" target="XmLIVMyjwb1xh4FuUnke-59" edge="1">
          <mxGeometry relative="1" as="geometry">
            <mxPoint x="660" y="410" as="targetPoint" />
          </mxGeometry>
        </mxCell>
        <mxCell id="XmLIVMyjwb1xh4FuUnke-96" style="edgeStyle=orthogonalEdgeStyle;rounded=0;orthogonalLoop=1;jettySize=auto;html=1;exitX=0.75;exitY=1;exitDx=0;exitDy=0;entryX=0;entryY=0.5;entryDx=0;entryDy=0;fontSize=14;endArrow=none;endFill=0;" parent="1" source="XmLIVMyjwb1xh4FuUnke-53" target="XmLIVMyjwb1xh4FuUnke-67" edge="1">
          <mxGeometry relative="1" as="geometry">
            <Array as="points">
              <mxPoint x="740" y="210" />
              <mxPoint x="740" y="353" />
            </Array>
          </mxGeometry>
        </mxCell>
        <mxCell id="XmLIVMyjwb1xh4FuUnke-97" style="edgeStyle=orthogonalEdgeStyle;rounded=0;orthogonalLoop=1;jettySize=auto;html=1;exitX=0.5;exitY=0;exitDx=0;exitDy=0;fontSize=14;endArrow=none;endFill=0;" parent="1" source="XmLIVMyjwb1xh4FuUnke-67" target="XmLIVMyjwb1xh4FuUnke-41" edge="1">
          <mxGeometry relative="1" as="geometry" />
        </mxCell>
        <mxCell id="XmLIVMyjwb1xh4FuUnke-100" style="edgeStyle=orthogonalEdgeStyle;rounded=0;orthogonalLoop=1;jettySize=auto;html=1;exitX=1;exitY=0.5;exitDx=0;exitDy=0;entryX=0;entryY=0.5;entryDx=0;entryDy=0;fontSize=14;endArrow=none;endFill=0;" parent="1" source="XmLIVMyjwb1xh4FuUnke-53" target="XmLIVMyjwb1xh4FuUnke-41" edge="1">
          <mxGeometry relative="1" as="geometry" />
        </mxCell>
        <mxCell id="XmLIVMyjwb1xh4FuUnke-101" style="edgeStyle=orthogonalEdgeStyle;rounded=0;orthogonalLoop=1;jettySize=auto;html=1;exitX=1;exitY=0.5;exitDx=0;exitDy=0;fontSize=14;endArrow=none;endFill=0;entryX=0.5;entryY=0;entryDx=0;entryDy=0;entryPerimeter=0;" parent="1" source="XmLIVMyjwb1xh4FuUnke-67" target="XmLIVMyjwb1xh4FuUnke-17" edge="1">
          <mxGeometry relative="1" as="geometry">
            <mxPoint x="1210" y="380" as="targetPoint" />
          </mxGeometry>
        </mxCell>
        <mxCell id="XmLIVMyjwb1xh4FuUnke-108" style="edgeStyle=orthogonalEdgeStyle;rounded=0;orthogonalLoop=1;jettySize=auto;html=1;exitX=0;exitY=0.75;exitDx=0;exitDy=0;entryX=1;entryY=0.25;entryDx=0;entryDy=0;fontSize=14;endArrow=none;endFill=0;" parent="1" source="XmLIVMyjwb1xh4FuUnke-53" target="XmLIVMyjwb1xh4FuUnke-69" edge="1">
          <mxGeometry relative="1" as="geometry" />
        </mxCell>
        <mxCell id="XmLIVMyjwb1xh4FuUnke-109" style="edgeStyle=orthogonalEdgeStyle;rounded=0;orthogonalLoop=1;jettySize=auto;html=1;exitX=1;exitY=0.5;exitDx=0;exitDy=0;entryX=0;entryY=0.5;entryDx=0;entryDy=0;fontSize=14;endArrow=none;endFill=0;" parent="1" source="XmLIVMyjwb1xh4FuUnke-69" target="XmLIVMyjwb1xh4FuUnke-59" edge="1">
          <mxGeometry relative="1" as="geometry" />
        </mxCell>
        <mxCell id="XmLIVMyjwb1xh4FuUnke-123" value="◀ prepares&amp;nbsp;" style="edgeLabel;html=1;align=center;verticalAlign=middle;resizable=0;points=[];fontSize=15;" parent="XmLIVMyjwb1xh4FuUnke-109" vertex="1" connectable="0">
          <mxGeometry x="-0.2125" y="4" relative="1" as="geometry">
            <mxPoint x="8" y="14" as="offset" />
          </mxGeometry>
        </mxCell>
        <mxCell id="XmLIVMyjwb1xh4FuUnke-110" style="edgeStyle=elbowEdgeStyle;rounded=0;orthogonalLoop=1;jettySize=auto;html=1;exitX=1;exitY=0.25;exitDx=0;exitDy=0;entryX=0;entryY=0.5;entryDx=0;entryDy=0;fontSize=14;endArrow=none;endFill=0;elbow=vertical;" parent="1" source="XmLIVMyjwb1xh4FuUnke-30" target="XmLIVMyjwb1xh4FuUnke-53" edge="1">
          <mxGeometry relative="1" as="geometry">
            <Array as="points" />
          </mxGeometry>
        </mxCell>
        <mxCell id="XmLIVMyjwb1xh4FuUnke-118" value="&lt;font style=&quot;font-size: 15px;&quot;&gt;receives ▶&lt;/font&gt;" style="edgeLabel;html=1;align=center;verticalAlign=middle;resizable=0;points=[];fontSize=15;" parent="XmLIVMyjwb1xh4FuUnke-110" vertex="1" connectable="0">
          <mxGeometry x="-0.3393" relative="1" as="geometry">
            <mxPoint x="20" y="-18" as="offset" />
          </mxGeometry>
        </mxCell>
        <mxCell id="XmLIVMyjwb1xh4FuUnke-111" style="edgeStyle=elbowEdgeStyle;rounded=0;orthogonalLoop=1;jettySize=auto;html=1;exitX=1;exitY=0.5;exitDx=0;exitDy=0;entryX=0.5;entryY=1;entryDx=0;entryDy=0;fontSize=14;endArrow=none;endFill=0;elbow=vertical;" parent="1" source="XmLIVMyjwb1xh4FuUnke-59" target="XmLIVMyjwb1xh4FuUnke-67" edge="1">
          <mxGeometry relative="1" as="geometry">
            <Array as="points">
              <mxPoint x="920" y="480" />
            </Array>
          </mxGeometry>
        </mxCell>
        <mxCell id="XmLIVMyjwb1xh4FuUnke-116" style="edgeStyle=elbowEdgeStyle;rounded=0;orthogonalLoop=1;jettySize=auto;elbow=vertical;html=1;exitX=0.5;exitY=0.5;exitDx=0;exitDy=0;exitPerimeter=0;entryX=0;entryY=0.25;entryDx=0;entryDy=0;fontSize=14;endArrow=none;endFill=0;" parent="1" source="XmLIVMyjwb1xh4FuUnke-112" target="XmLIVMyjwb1xh4FuUnke-30" edge="1">
          <mxGeometry relative="1" as="geometry" />
        </mxCell>
        <mxCell id="XmLIVMyjwb1xh4FuUnke-112" value="Guest&lt;br&gt;" style="shape=umlActor;verticalLabelPosition=bottom;verticalAlign=top;html=1;outlineConnect=0;" parent="1" vertex="1">
          <mxGeometry x="120" y="130" width="50" height="90" as="geometry" />
        </mxCell>
        <mxCell id="XmLIVMyjwb1xh4FuUnke-120" value="&lt;font style=&quot;font-size: 15px;&quot;&gt;convey reqeuests&amp;nbsp;&lt;/font&gt;&lt;span style=&quot;font-size: 15px; background-color: rgb(255, 255, 255);&quot;&gt;▶&lt;/span&gt;" style="text;html=1;align=center;verticalAlign=middle;resizable=0;points=[];autosize=1;strokeColor=none;fontSize=15;" parent="1" vertex="1">
          <mxGeometry x="750" y="330" width="150" height="20" as="geometry" />
        </mxCell>
        <mxCell id="XmLIVMyjwb1xh4FuUnke-121" value="posts&amp;nbsp;&lt;br style=&quot;font-size: 16px;&quot;&gt;▼" style="text;html=1;align=center;verticalAlign=middle;resizable=0;points=[];autosize=1;strokeColor=none;fontSize=16;rotation=0;" parent="1" vertex="1">
          <mxGeometry x="480" y="320" width="60" height="40" as="geometry" />
        </mxCell>
        <mxCell id="XmLIVMyjwb1xh4FuUnke-124" value="&lt;font style=&quot;font-size: 15px;&quot;&gt;convey reqeuests&amp;nbsp;&lt;/font&gt;&lt;span style=&quot;font-size: 15px; background-color: rgb(255, 255, 255);&quot;&gt;▶&lt;/span&gt;" style="text;html=1;align=center;verticalAlign=middle;resizable=0;points=[];autosize=1;strokeColor=none;fontSize=15;rotation=90;" parent="1" vertex="1">
          <mxGeometry x="605" y="310" width="150" height="20" as="geometry" />
        </mxCell>
        <mxCell id="LSCKI8ODp4GyhHWEsJ_P-1" value="&lt;font style=&quot;font-size: 15px;&quot;&gt;convey reqeuests&amp;nbsp;&lt;/font&gt;&lt;span style=&quot;font-size: 15px; background-color: rgb(255, 255, 255);&quot;&gt;▶&lt;/span&gt;" style="text;html=1;align=center;verticalAlign=middle;resizable=0;points=[];autosize=1;strokeColor=none;fontSize=15;" vertex="1" parent="1">
          <mxGeometry x="780" y="120" width="150" height="20" as="geometry" />
        </mxCell>
        <mxCell id="LSCKI8ODp4GyhHWEsJ_P-2" value="◀ provides data" style="text;html=1;align=center;verticalAlign=middle;resizable=0;points=[];autosize=1;strokeColor=none;fontSize=15;" vertex="1" parent="1">
          <mxGeometry x="850" y="490" width="120" height="20" as="geometry" />
        </mxCell>
        <mxCell id="LSCKI8ODp4GyhHWEsJ_P-3" value="saves data to&lt;br&gt;▼" style="text;html=1;align=center;verticalAlign=middle;resizable=0;points=[];autosize=1;strokeColor=none;fontSize=15;" vertex="1" parent="1">
          <mxGeometry x="973" y="230.5" width="100" height="40" as="geometry" />
        </mxCell>
        <mxCell id="LSCKI8ODp4GyhHWEsJ_P-4" value="generates ▶" style="text;html=1;align=center;verticalAlign=middle;resizable=0;points=[];autosize=1;strokeColor=none;fontSize=15;" vertex="1" parent="1">
          <mxGeometry x="1110" y="120" width="100" height="20" as="geometry" />
        </mxCell>
      </root>
    </mxGraphModel>
  </diagram>
</mxfile>
